<?xml version="1.0" encoding="UTF-8"?>
<svg width="1200pt" height="1200pt" version="1.1" viewBox="0 0 1200 1200" xmlns="http://www.w3.org/2000/svg">
 <path d="m573.71 44.203-407.21 407.34-122.06 121.92v0.046875c-6.9844 6.9375-10.922 16.406-10.922 26.297 0 9.8438 3.9375 19.312 10.922 26.297 6.9375 6.9844 16.406 10.922 26.297 10.922 9.8438 0 19.312-3.9375 26.297-10.922l58.453-58.5v524.63h-84.797 0.046875c-9.8906 0.046875-19.312 3.9844-26.297 10.969s-10.875 16.453-10.828 26.344c0 20.484 16.641 37.078 37.125 37.125h1058.6-0.09375c20.484-0.046875 37.125-16.641 37.125-37.125 0.046875-9.8906-3.8438-19.359-10.828-26.344-6.9375-6.9844-16.406-10.922-26.297-10.969h-84.797v-524.63l58.453 58.5h0.046875c6.9844 6.9844 16.453 10.922 26.297 10.922 9.8906 0 19.359-3.9375 26.297-10.922 6.9844-6.9844 10.922-16.453 10.922-26.297 0-9.8906-3.9375-19.359-10.922-26.297l-111.09-111.09v-306.94l0.046875-0.046875c0-9.8906-3.9375-19.359-10.922-26.391-6.9844-6.9844-16.5-10.875-26.391-10.875h-179.34 0.046874c-9.8906 0-19.406 3.8906-26.391 10.875-7.0312 7.0312-10.922 16.5-10.922 26.391v53.062l-164.29-164.29c-6.9844-6.9375-16.406-10.875-26.297-10.875-9.8438 0-19.312 3.9375-26.297 10.875zm26.297 78.891 201.56 201.61 168.52 168.52v598.87h-203.68v-427.08c0-9.8906-3.8906-19.359-10.875-26.344-7.0312-7.0312-16.5-10.922-26.391-10.922h-258.42c-9.8438 0-19.312 3.9375-26.297 10.969-6.9375 6.9844-10.828 16.453-10.828 26.297v427.03h-203.68v-599.02zm265.03 69.469h105.09v195.42l-105.09-104.91zm-357 509.72h183.98v389.95h-183.98z"/>
</svg>
